# xmcd
#
# Track frame offsets:
# 150
# 17572
# 34602
# 48434
# 66984
# 83832
# 97279
# 109134
# 129554
# 145759
# 160712
# 172934
# 189944
# 205507
#
# Disc length: 2931 seconds
#
#
# Revision: 0
# Processed by: cddbd v1.5.2PL0 Copyright (c) Steve Scherf et al.
# Submitted via: FreeRIP 2.96 
#
DISCID=b30b710e
DTITLE=GIAN E GIOVANI - SUPER 3 - CD3 - GIAN
DYEAR=1900
DGENRE=
TTITLE0=OLHA AMOR
TTITLE1=DOIS CORAÇÕES
TTITLE2=CONTRA-SENSO
TTITLE3=APERTE O PLAY
TTITLE4=SUA VEZ
TTITLE5=EU QUERO TE AMAR
TTITLE6=HEY HEY TREM BOM
TTITLE7=O AMOR DA MINHA VIDA
TTITLE8=ROUPAS DA LUA DE MEL
TTITLE9=GOL DO CORAÇÃO
TTITLE10=A MORENA PROIBIDA
TTITLE11=AGORA SEI QUE EU TE AMAVA
TTITLE12=MEU CORAÇÃO SÓ QUER VOCÊ
TTITLE13=NÓS BRAÇOS DA DESILUSÃO
EXTD=
EXTT0=
EXTT1=
EXTT2=
EXTT3=
EXTT4=
EXTT5=
EXTT6=
EXTT7=
EXTT8=
EXTT9=
EXTT10=
EXTT11=
EXTT12=
EXTT13=
PLAYORDER=
